<svg xmlns="http://www.w3.org/2000/svg" viewBox="0 0 479.25 475.76">
    <defs>
        <style>
            .cls-1,
            .cls-2 {
                stroke: #000;
                stroke-miterlimit: 10;
            }

            .cls-2,
            .cls-6 {
                fill: #fff;
            }

            .cls-3 {
                fill: #371313;
            }

            .cls-4 {
                fill: #15152e;
            }

            .cls-5 {
                fill: #ddad6f;
            }

            .cls-7 {
                opacity: 0.5;
            }

            .cls-8 {
                opacity: 0.21;
            }

            .cls-9 {
                opacity: 0.36;
            }

            .cls-10 {
                fill: #010101;
            }
        </style>
    </defs>
    <g id="Capa_2" data-name="Capa 2">
        <circle class="cls-1" cx="240.41" cy="239.18" r="234.65" />
        <circle class="cls-2" cx="240.41" cy="239.18" r="201.64" />
    </g>
    <g id="Capa_1" data-name="Capa 1">
        <path class="cls-3"
            d="M169.79,155.4l3.89-7.52,8.17-19.18,10-13.32-2.76-6.19,12.29-8.65,12-4.55,9.3.77,7.59-.77s8.75-3.86,10.21-2.79,18.6,0,18.6,0l9.05,4.68,15.1,5.79,8.61,10.58L304.4,140l1.23,5.51v7.52l-6.53,3.58L183.75,188.87l-14.54-21.39Z" />
        <polygon class="cls-4"
            points="139.26 271.53 153.93 267.62 166.4 254.67 170.56 255.51 260.13 277.05 262.65 280.66 264.9 285.88 274.5 289.78 284.43 295.72 318.58 309.33 329.8 316.01 335.24 323.29 351.19 350.79 368.74 383.74 128.52 383.74 112.08 373.13 115.36 279.61 139.26 271.53" />
        <path class="cls-5"
            d="M180.7,183.88c0-1.39-.15-17-10-22-1-.51-5.12-2.59-8.67-.92-5,2.33-5.31,10.36-5.39,12.3s.45,4.59,1.51,10c.87,4.4,1.5,7,2.53,11.12,1.76,7.07,2.52,9.27,4.52,11.42,1,1.11,2.42,2.57,4.47,2.71a7.06,7.06,0,0,0,6.55-4.44c.28-.79.26-1.41.51-1.45.84-.12,2.46,6.37,2.6,6.93,1,4.13,1.42,8.88-.16,22-2,16.51-4.25,22.61-5,24.51-1.66,4.3-3,8-3.59,7.86-.85-.21,1-8.16,0-8.45-.81-.23-3.63,4.39-4.31,9.92-.15,1.24-.4,4.18,1.38,11.24a81.36,81.36,0,0,0,4.34,12.8,120.2,120.2,0,0,0,10.93,19.32c7.14,10.71,9,11,10.55,16.53,1.1,3.84,1,6.32,3.34,9.38,2.62,3.38,4.4,2.49,9.54,6.28,4.48,3.31,8.6,8,11.23,11,2.45,2.81,3.69,4.53,5.23,4.29,1.91-.29,2.57-3.31,3.87-6.41,2.07-5,3.37-4.44,11.86-15.32,5.3-6.8,7.95-10.2,9.07-13.32,2.14-5.91.27-7,2.33-14.65,1.86-6.95,3.88-7.93,5.87-14.63a46.47,46.47,0,0,0,1.88-14.79l12.11-14.41,13.75-19.52,5.71-10.8,3.07-7.85,2.12-9.3,0-5,2.22-10.27,1.76-5.59L297.5,190l3.81-10.55,1.62-7L302,158.87l-.65-2.25-2.26,0-3-.52-3.3-8.78-10.48-7.94-9.42-5.94-5.56-5.36L243.56,117l-7.32-1.57-10.39,3.25L207.2,129.6l-8.4,10.31-6.92,12.62L186.17,171Z" />
        <path d="M177.46,162.44l-2.83,3,4.55-1.42,9.32,2s12.21,3.52,12.53,3.56,2.81.75,2.81.75l1.17-3-16.19-3.66Z" />
        <path
            d="M206.18,173.15l1.25-5.27,13.26,1.67,14.22,1.84,10.5,3.12,3.82,2.44-10.45-1.76s-13.62-5.29-25.95-1.88l-2.62,5.88-1.37,8.51.49,5.8,4.1,6.34-3.06-.7-3.31-3.5-.88-10.16.85-8Z" />
        <path
            d="M254,194.46l5.93-6.77,5.77,1.67,1.7,7.35,2.3-9.54,4.22-2.56,7.7-.75,11.86,1.37,7.31,2.46,3.84,1.8,1.57,2.82-2.41,10.06.89,1.87,4.33-8.85,1-1.57,1.52-3-.52-2.75-21.71-6.8-14.48.47h-5.27s-9.14.2-9.61,0-5.23-4.14-5.9-4.29a24.91,24.91,0,0,0-4,.45l5.31,3.68-.89,8.26-1.44,6Z" />
        <polygon class="cls-6"
            points="221.99 180.74 220.7 181.73 221.35 182.55 228.45 184.51 239.95 185.23 240.12 183.86 230.41 178.47 223.32 179.26 221.99 180.74" />
        <path class="cls-6"
            d="M271.27,187.69l8.88,1,3.52,3,1.7,2.16.31.64-.89.31-4.35.18c-.29,0-3.29-.68-3.29-.68l-2-1.09-3.05-1-1.3.33-1.32.2h-.44l.6-4.25,1.22-.3.4-.32Z" />
        <polygon class="cls-3"
            points="225.45 179.02 224.93 180.82 225.19 182.62 226.53 183.86 229.03 184.54 230.29 184.46 231.7 183.44 232 178.79 225.45 179.02" />
        <polygon class="cls-3"
            points="272.72 187.17 272.17 188.46 272.25 189.81 273.7 192.31 275.64 193.44 277.37 193.16 279.59 188.87 277.37 187.53 272.72 187.17" />
        <g class="cls-7">
            <path
                d="M274.11,321c.18,0,.61.84,1,2.57a26.62,26.62,0,0,1,.62,7.58l-2-.19c0-.48,0-1,0-1.49l0-.78,0-.4a2.68,2.68,0,0,0-.11-.35s0,.11,0,.15c.08.57.18,1.15.29,1.74l.09.45,0,.11h0l-.06.06h0l0,0-.13-.08a6.2,6.2,0,0,0-.9-.4,14,14,0,0,1,.61-2.24,16.66,16.66,0,0,1,.74-1.7l2.18-4.42.25,5c.05.86.09,1.73.14,2.62l-2.68-.15a3.54,3.54,0,0,1,.81-1.82l2.22-2.65.18,3.49c0,.81.09,1.62.13,2.45l0,.63v.29h.5l2.65,0h-.45l-1.79,0h-.9s0,0,0,0v0s0,0,0,0h0l0,0v0h.82l1.83,0h.55l0,0-.05,0-.12.06-.33.16-.71.34a13,13,0,0,0-2.69,1.47,2.66,2.66,0,0,0-.23.24s-.08.07-.1.13l0,.23c0,.06,0,.19-.06.19l-.16,0-.31.06c-.16.05,0-.05,0-.08l.11-.14.23-.29.94-1.17.23-.29h0l.14,0h0v.06l0,.07.06.17.37,1a8.23,8.23,0,0,1-2.62.73c-.26,0-.5,0-.77,0h-.47a2.34,2.34,0,0,1-.38,0,2.3,2.3,0,0,1-1.3-.51,2.81,2.81,0,0,1-.8-2.68c0-.51.09-1,.11-1.52a54.41,54.41,0,0,0-1.25-15c-1-4.53-2.58-8.56-3.58-12.09a36.17,36.17,0,0,1-1.65-8.56c-.08-2.08.16-3.22.34-3.22s.39,1.12.82,3.06a57.23,57.23,0,0,0,2.5,8,118.31,118.31,0,0,1,4.26,12.11,52.13,52.13,0,0,1,1.56,15.87c0,.53-.08,1.08-.12,1.6h-.08c.07,0-.07.07.06,0s0,0,0,0h0v-.9l-.05-2.46,2.4.85a.93.93,0,0,0-.21.42l-2.68-.15,0-2.63,2.43.58-.56,1.05c0,.08-.14.4-.09.19l.06-.36c0-.05,0-.06,0,0v.45c0,.3,0,.59,0,.88,0,.57-.06,1.13-.13,1.66l-2-.18a37.45,37.45,0,0,0,.29-7.22C274,322,273.92,321.06,274.11,321Z" />
        </g>
        <g class="cls-7">
            <path
                d="M229.44,374.25c.26,0,.7.77.89,2.42a5.67,5.67,0,0,1-.55,3.12,4.35,4.35,0,0,1-1.45,1.67c-.69.45-1.29.66-1.5.88l-.63.64-.93-.65a1.78,1.78,0,0,1-.7-1.14,1.93,1.93,0,0,1,.12-1.05,1.89,1.89,0,0,1,.27-.47,1.24,1.24,0,0,1,.19-.21l.18-.16a2.31,2.31,0,0,1,.76-.37,3.62,3.62,0,0,1,1.13-.12h.29c.06,0,0,0,0,0a0,0,0,0,0,0,0s0,0,0-.06a1,1,0,0,0,.14-.46c.06-.47-.13-1.25-.12-2.4a4,4,0,0,1,.77-2.4l2.16-2.83.5,3.5a10.48,10.48,0,0,1-.19,4,7.53,7.53,0,0,1-.7,1.88,3.51,3.51,0,0,1-.81,1,2.35,2.35,0,0,1-1.54.55l-1.72,0,.47-1.6a1.65,1.65,0,0,1,.51-.8,1.84,1.84,0,0,1,.57-.33c.14-.05.11,0,.13,0h0a.15.15,0,0,0,.15-.06.43.43,0,0,0,.07-.23l.08-.72c.09-.95.14-1.78.19-2.47.1-1.39.19-2.22.47-2.27s.68.71,1,2.13a18.06,18.06,0,0,1,.42,2.61l0,.79a4.15,4.15,0,0,1-.11,1.33,1.8,1.8,0,0,1-1,1,1.92,1.92,0,0,1-.36.14l-.19.06-.07,0h0l-.05-.15c-.29-.72-.45-.64-.31-.61l-.43-1.14s0,.05,0,0,0-.07-.07-.14l-.08-.11s.07-.11.12-.24a5.63,5.63,0,0,0,.32-1.19,8.54,8.54,0,0,0,0-2.9l2.66.67a1.41,1.41,0,0,0-.15.69,19.45,19.45,0,0,1,.07,2.64,3.81,3.81,0,0,1-.69,1.81,3.14,3.14,0,0,1-.8.78,2.73,2.73,0,0,1-1.06.43,3,3,0,0,1-.66,0,3.68,3.68,0,0,1-.41,0h-.25s0,0,0,0l0-.17a1,1,0,0,0-.16-.38l0,0-.15-.16h0l.06,0a.3.3,0,0,0-.13,0,.23.23,0,0,0-.11,0l-1-.76a12.15,12.15,0,0,1,1.78-.81,2.28,2.28,0,0,0,.85-.71,5.07,5.07,0,0,0,.86-2.08C229,375.21,229.13,374.26,229.44,374.25Z" />
        </g>
        <g class="cls-7">
            <path
                d="M256.39,124.28c-.05.14-.68.13-1.8-.18a14.93,14.93,0,0,1-4.49-2.2,9.87,9.87,0,0,0-1.27-.8,2.56,2.56,0,0,0-1.3-.28c-.52,0-1.28.05-2,0a17.18,17.18,0,0,1-2.2-.24c-.37-.06-.75-.14-1.13-.23a2.94,2.94,0,0,1-1.61-.85q-.1-.14-.21-.3a2.59,2.59,0,0,1-.13-.28l0,0s0-.07,0-.08-.08,0-.26,0l-5,0-8.37.06,8-2.74.62-.21,6.89-2.37-5.58,4.75-.62.52s-.18,0,.11.45l0,.06h0v-.09l0-.21.06-.44.06-.44V118h0l.1.06h0v.18l0,.46,0,.71-1.72.14-1,.11-1.79.24c-1.19.18-2.41.4-3.63.67l-.09-2.94a2.51,2.51,0,0,1,1.44.76l1.34,1.41-1.72.92-3.6,1.93-1.5.81-.58-2.82,3,.26,5,.44L227,123.7a50.1,50.1,0,0,1-10.11,4.07l-2.51.71.79-2.44a3,3,0,0,1,3.7-2l2.61.79-2.19,1.57a42.61,42.61,0,0,1-6.64,3.91l-.29-2.16a3.36,3.36,0,0,0,1.94-.11l.41,2-4.69-.28-3.31-.2,2.92-1.4a4.9,4.9,0,0,1,3.2-.37l1.74.41-1.49.82a9.39,9.39,0,0,1-3.07,1.11c-.74.11-1.14.06-1.17-.05-.07-.27,1.46-.64,3.51-2.18l.25,1.22a3.65,3.65,0,0,0-2.16.53l-.39-1.59,4.69-.15,5.13-.15L215.1,130a5.36,5.36,0,0,1-3.24.42l-3.19-.56,2.9-1.6a47.21,47.21,0,0,0,6.08-4l.42,2.36a.48.48,0,0,0-.18.06c-.09.06-.13.14-.11.14l-1.72-1.74a53.83,53.83,0,0,0,9.48-4l.58,2.79-3-.24-5.06-.42,4.48-2.4,1.5-.8,3.61-1.92v2c-.05,0,0,.06,0,0l-.16-2.39c1.29-.26,2.57-.48,3.83-.65l1.88-.22.79-.07h.1s.09,0,0,0-.06,0,0,0l.63-.5,1.31,2.38-.63.19-.41-2.67,5,.16a7.58,7.58,0,0,1,1,.06,1.81,1.81,0,0,1,.89.4,1.76,1.76,0,0,1,.53.79,3.81,3.81,0,0,1,.12.51v0c-.15.07.34-.1-.34.16h-.05l0,0s0,0,0,0h0l.06,0a1.81,1.81,0,0,0,.24-.28l.06,0a2.78,2.78,0,0,0,.35.13c.33.1.65.19,1,.26a14.76,14.76,0,0,0,1.91.34c.64.08,1.17.1,1.89.14a5.12,5.12,0,0,1,1.12.21,5,5,0,0,1,1,.47,10.88,10.88,0,0,1,1.39,1.09,21.87,21.87,0,0,0,3.81,2.69C255.89,123.84,256.43,124.13,256.39,124.28Z" />
        </g>
        <g class="cls-7">
            <path
                d="M292.44,216.86c.05.4-.94.9-2.64,1.23a22,22,0,0,1-13.1-1.94c-1.53-.8-2.33-1.57-2.17-1.94.35-.78,4.22.27,9,.95S292.33,216,292.44,216.86Z" />
        </g>
        <g class="cls-7">
            <path
                d="M235.61,207c0,.4-1.44.88-3.86,1.13a33.39,33.39,0,0,1-9.52-.5,33.92,33.92,0,0,1-5.06-1.45,23.19,23.19,0,0,1-4-1.75,9.37,9.37,0,0,1-1.42-1.06c-.38-.37-.6-.65-.8-.85-.35-.4-.68-.5-.72-.71s.06-.23.28-.32a1.53,1.53,0,0,1,1,0,8.29,8.29,0,0,1,1.21.49,13.64,13.64,0,0,0,1.37.53c1,.33,2.38.65,3.89,1s3.12.82,4.84,1.15C229.69,206,235.57,206.07,235.61,207Z" />
        </g>
        <g class="cls-7">
            <path
                d="M239.36,216.08c-.11.39-.75.63-1.82.64a2.24,2.24,0,0,1-1.3-.53,3.19,3.19,0,0,1-.52-.6l-.32-.48a6.43,6.43,0,0,1-.83-2.41,7.09,7.09,0,0,1,.13-2.48,9.21,9.21,0,0,1,.61-1.74,2.81,2.81,0,0,1,.93-1.2c.36-.21.64-.17.77,0a1.47,1.47,0,0,1,.22.65c.05.25.11.54.16,1,.11,1,0,2.31.16,3.41a9.15,9.15,0,0,0,.36,1.64l.11.36c0,.09,0,.08,0,.13a.29.29,0,0,0,.08.24C238.93,215.16,239.47,215.68,239.36,216.08Z" />
        </g>
        <g class="cls-7">
            <path
                d="M274,219.66c-.16-.39.16-.88.42-1.31a1.39,1.39,0,0,0,.18-.55,3.25,3.25,0,0,0,0-.42,7.6,7.6,0,0,0-.24-1.52,1.32,1.32,0,0,1,0-.77,1.7,1.7,0,0,1,.2-.56.63.63,0,0,1,.63-.27,3.2,3.2,0,0,1,.88.36,3.08,3.08,0,0,1,.95.91,3.23,3.23,0,0,1,.58,1.88,3,3,0,0,1-.78,2,2.48,2.48,0,0,1-1.44.81C274.53,220.33,274.11,220,274,219.66Z" />
        </g>
        <g class="cls-7">
            <path
                d="M300.27,157.5a.94.94,0,0,1-.56.28l.88-.08a1.67,1.67,0,0,1,.05.75,1.47,1.47,0,0,1-.11.47,2.33,2.33,0,0,1-.51.69,2.18,2.18,0,0,1-.8.46,3.83,3.83,0,0,1-.89.15,4.12,4.12,0,0,1-.62,0A3.82,3.82,0,0,1,297,160a2.3,2.3,0,0,1-1.2-.88,1.26,1.26,0,0,1-.19-1.07.55.55,0,0,1,.51-.39c.21,0,.41,0,.6,0a1,1,0,0,0,.45-.17c.13-.08.15-.18.31-.22a1.33,1.33,0,0,1,.3-.07l.44,0c.15,0,.11,0,.12,0a.17.17,0,0,0,.06.06.23.23,0,0,0,.13.06,2.7,2.7,0,0,0,.35-.17,1.7,1.7,0,0,1,.73-.18l.88-.09A1,1,0,0,1,300.27,157.5Z" />
        </g>
        <g class="cls-7">
            <path
                d="M297.85,158.55c0,.18-.28.51-1.06.66a4.84,4.84,0,0,1-3.17-.75,6.89,6.89,0,0,1-1.72-1.52,10.11,10.11,0,0,1-1.31-2.16,46.43,46.43,0,0,1-1.63-4.92,8.53,8.53,0,0,0-2.09-3.73,33.06,33.06,0,0,0-3.07-2.46,10.19,10.19,0,0,1-2.12-2.06c-.42-.59-.51-1-.37-1.15s.54,0,1.13.26l2.47,1.14a17.35,17.35,0,0,1,3.8,2.21,8.36,8.36,0,0,1,1.9,2.17,12.21,12.21,0,0,1,1.21,2.69c.59,1.85.87,3.49,1.34,4.82a7.47,7.47,0,0,0,1.73,3C296.3,158.19,297.75,158.14,297.85,158.55Z" />
        </g>
        <g class="cls-7">
            <path
                d="M186.84,250.13c-.94,2.77,1.55,5.43,3.79,7.31,7.21,6,14.49,12.11,22.8,16.51,3.92,2.08,8.07,3.77,11.78,6.21a66.13,66.13,0,0,1,5.3,4l6.48,5.22c5.08,4.09,10.47,8.67,11.86,15l.74,1.88,1.88-4.23,5.31-14,1.44-10.69s-9.57,2.81-10,2.53-12.51-.27-12.51-.27l-14.55-4.75-5.67-4-5.93-7.09-4.06-4.22-5.9-4.11-7.1-3.8-4.17-1.7Z" />
            <path
                d="M186.84,250.13s.12-.1.35-.17.55-.14,1.14-.25c1.1.35,2.41.8,4.35,1.5,2,1,4.34,2.12,7.29,3.6l6.09,4.07c1.34,1.33,2.75,2.75,4.23,4.23l6,6.92,5.44,3.71,8.18,2.59,4.38,1.39,1.11.35.52.17h7.46l2.49,0,1.28,0c.23,0,.42,0,.68.05l.38,0a2.55,2.55,0,0,1,.54.15l.13.05.07,0c.64-1.05-.85,1.46-.67,1.17l0-.07a1.25,1.25,0,0,0,.19-.59,1.37,1.37,0,0,0-.1-.63c0-.07,0-.06-.06-.05s0,0,0,0h.12l.23,0,.56-.12,1.19-.28,2.44-.65,2.47-.69L260,275.3l-1.74,13.11c-.86,2.25-1.72,4.53-2.58,6.82-.76,2-1.51,4-2.25,5.91l-.56,1.47-.63,1.43c-.43.95-.85,1.9-1.27,2.85l-1.46,3.27-1.29-3.34-.41-1.06a10.14,10.14,0,0,1-.45-1.27,13.47,13.47,0,0,0-.61-2,17.14,17.14,0,0,0-2-3.6,35.64,35.64,0,0,0-5.77-6.07c-2.12-1.83-4.33-3.58-6.45-5.31s-4.19-3.47-6.21-5c-4-3.07-8.52-4.95-12.64-7.15a82.9,82.9,0,0,1-10.88-7c-3.14-2.36-5.85-4.64-8.18-6.65l-3.23-2.83a32.75,32.75,0,0,1-2.66-2.51,7.66,7.66,0,0,1-2.33-4.56c0-1.22.41-1.76.45-1.73s-.1.62.11,1.67a7.62,7.62,0,0,0,2.55,3.86c.75.72,1.69,1.43,2.73,2.25l3.37,2.64c2.42,1.89,5.19,4,8.36,6.24a86.06,86.06,0,0,0,10.78,6.52c4,2,8.78,3.87,13.15,7.11,2.16,1.58,4.21,3.28,6.36,5s4.35,3.42,6.58,5.3a38,38,0,0,1,6.29,6.53,20.29,20.29,0,0,1,2.36,4.21,19.2,19.2,0,0,1,.75,2.37,8.25,8.25,0,0,0,.33.88l.41,1.06-2.74-.06,1.23-2.8.63-1.41.55-1.46c.73-1.94,1.48-3.91,2.23-5.88l2.45-6.46c.38-2.8.76-5.57,1.13-8.28h0l-.3.08-2.51.69-2.5.64-1.28.3-.68.13-.39.06-.23,0h-.19a2,2,0,0,1-.42-.05,2.47,2.47,0,0,1-.41-.14l0,0c-.17.23,1.28-2.19.63-1.11l-.14.24a3.12,3.12,0,0,0-.23.49l-.09.26,0,.13c0,.06,0,.09,0,.07l.06,0,.13,0-.25,0-.57,0-1.21-.06-2.46-.06-4.84-.07-2.37,0h-.42a1.25,1.25,0,0,1-.54-.12l-.6-.2-1.11-.37L229,278.83,220.57,276q-3.06-2.18-5.91-4.23l-5.9-7.26-3.91-4.2-5.69-4.17c-2.69-1.52-5.12-2.92-6.92-4-1.72-.79-3.22-1.5-4-1.91-.37,0-.81,0-1,0S186.85,250.18,186.84,250.13Z" />
        </g>
        <g class="cls-7">
            <path
                d="M366.41,384.46c-8.25,1.29-16.67,1-25,.32-7.93-.62-15.9-1.57-23.4-4.2a107.76,107.76,0,0,1-12.09-5.38,17,17,0,0,1-3.41-2c-.77-.66-1.41-1.45-2.22-2.05a12.11,12.11,0,0,0-3.36-1.56l-11.19-3.89a2.58,2.58,0,0,1-1.41-.86,3.71,3.71,0,0,1-.17-2.15c.09-2.38-1.7-4.41-3.61-5.83s-4.13-2.53-5.57-4.43c-3.13-4.12-1.52-10-2.55-15.08-1.64-8.05-9.54-13-16.61-17.15-2.58-1.52-5.23-3.16-6.83-5.69s-1.79-6.22.39-8.27l7.35-19,1.61-9.72L265,288.21l5.87.52,9.82,5.86,45.62,19.16,21.37,31.71,17.5,33.32,2.9,4.29Z" />
            <path
                d="M366.41,384.46a7.22,7.22,0,0,1,1.32-1.43c-.59-.76-1.65-2.2-3-4-1.86-3.31-4.32-7.78-7.35-13.35s-6.58-12.16-10.64-19.68l-21.36-31.19L280,295.89l-9.62-5.72-6.28-.55c-1.23-2-2.45-4-3.69-6l-.83-1.34-.4-.64h0l-.15.9c-.27,1.67-.55,3.35-.83,5l-1.65,4.26c-1.1,2.85-2.2,5.68-3.28,8.49-.55,1.4-1.09,2.8-1.63,4.2l-.88,2.26a1.1,1.1,0,0,1-.32.45l-.23.25a3.2,3.2,0,0,0-.61,1,5.45,5.45,0,0,0-.1,3.42,6.65,6.65,0,0,0,.7,1.64,9.06,9.06,0,0,0,1.15,1.5c1.77,1.9,4.28,3.23,6.78,4.74a68.64,68.64,0,0,1,7.24,4.9,27,27,0,0,1,6,6.43,17.22,17.22,0,0,1,2.75,8.38c.2,2.84,0,5.51.37,7.92a9.62,9.62,0,0,0,1,3.28,8,8,0,0,0,2.2,2.49c.93.73,2,1.4,3.08,2.16a14.1,14.1,0,0,1,3.07,2.83,7.1,7.1,0,0,1,1.58,4.21,13.85,13.85,0,0,0-.06,1.6c.05.11,0,.1.41.32l6.71,2.37,3.3,1.17c1.09.39,2.15.72,3.3,1.22a9.69,9.69,0,0,1,1.69.93,11.16,11.16,0,0,1,1.42,1.24,10.2,10.2,0,0,0,2.32,1.91c.86.52,1.84,1,2.79,1.47l2.84,1.41c1.86.91,3.7,1.77,5.52,2.52,7.26,3,14.42,4.16,20.68,4.92s11.74,1.12,16.18,1.27,7.91,0,10.26-.15a19.06,19.06,0,0,1,3.59-.15,13.48,13.48,0,0,1-3.53.75,74.73,74.73,0,0,1-10.33.71c-4.5,0-10-.21-16.35-.77s-13.7-1.58-21.29-4.61c-1.89-.75-3.79-1.59-5.69-2.49l-2.88-1.38c-1-.47-1.94-.91-3-1.5a11.12,11.12,0,0,1-1.5-1c-.5-.4-.91-.83-1.3-1.2a6.75,6.75,0,0,0-2.4-1.65c-.94-.39-2.07-.73-3.15-1.11l-3.32-1.13-6.84-2.34a3.63,3.63,0,0,1-1.2-.73,2.74,2.74,0,0,1-.8-1.47,11.63,11.63,0,0,1,0-2.07,4.44,4.44,0,0,0-1.06-2.63c-1.3-1.72-3.5-2.78-5.73-4.47a10.75,10.75,0,0,1-2.92-3.3,12.26,12.26,0,0,1-1.36-4.19c-.43-2.83-.24-5.55-.45-8.11a15.9,15.9,0,0,0-.71-3.67,15.5,15.5,0,0,0-1.64-3.38,24.42,24.42,0,0,0-5.44-5.7,63.27,63.27,0,0,0-7-4.66c-2.4-1.46-5.14-2.84-7.42-5.23a11.67,11.67,0,0,1-1.53-2,9.26,9.26,0,0,1-1-2.4,8.36,8.36,0,0,1,.2-5.31,6.48,6.48,0,0,1,.68-1.27,6,6,0,0,1,.45-.58l.12-.13s0,0,0,0h0l.74-1.91,1.62-4.21c1.09-2.81,2.18-5.64,3.29-8.48l1.53-4q1.14-6.81,2.25-13.5l8.31,13.48,5.47.49c3.37,2,6.71,4,10,6l45.8,19.44L348.5,345l10.21,20c2.86,5.64,5.17,10.26,6.8,13.59,1.21,1.95,2.17,3.48,2.84,4.55C367,384.17,366.49,384.5,366.41,384.46Z" />
        </g>
        <path class="cls-8"
            d="M211.17,169.9l-2.33,21.42,4.59,8.52,20.77,6.06,10.42-2,9.78-14.08.89-8.26s-6.38-4.38-8.19-5-30.75-6.69-30.75-6.69Z" />
        <g class="cls-9">
            <path class="cls-6"
                d="M236.72,183.26c-30.5-.19-24.11,6.9-5.31,6.45-31.63.08-28.73,4.6-10.12,4.66,18.91-.67,19.31,2.18,17.84,2.12-2.83-.68,9.22-.15-22.49-.36,20.14-.39,1.6-1.2,10.17-1.44,28.28.06,18.12-4.46,28.52-3.76-29.83-.58-31.72-3.69-17.21-3.56,2.37-1.08-18.65-2.45,12.33-2.09,10.91-.92-13.7-2.86-21-2.55,1.1.54,5.9-1.12-11.84-.77C223.42,182.77,206.22,182.64,236.72,183.26Z" />
        </g>
        <path class="cls-8"
            d="M268.18,186.55l0,11,2,11.41,16.62,4.84,10.41-2L307,197.76l.89-8.25s-6.38-4.39-8.19-5-27.6-.74-27.6-.74Z" />
        <g class="cls-9">
            <path class="cls-6"
                d="M287.53,188.62c-.56.26-17.49,10.79-12.33,9.19-6.54,1.33,5,1.52-7.94.81.95,1.6,23.28,6.24.08,4.53,18.77,1.76-.2,1.67,14.89,1.77,4.07-.55,10.76,3.48,16.1,3.17-10.13-.67-18.36.29-6.48-1.3,0,.43,15.45,2,10.23,1.38,2.66-.54,2.67-.82-24.5-1,26.4,1,12.76-.56,1.42.24-1-.16,26.18-2.1,31.21-.56-5.15-.66-19-7.8-15.35-7.93-4.87.52,17.39.15,10,1.13-4.8-1.44.66-5.51,2.89-5.16-23.54-.25,3.57-2.14-14.55-3,14.88,1.8,5.15-.82,1.85-.54-.59-.24,9.66-.13-13.36-1.37,3.06.13,12.24-3.92-6.26-3.06,28.84.86-.05.5,15.16-.94-22.53,1.32-13.23,1.24,3.39,1.13-17.53.29-25.92-.63-23.49-1.19C274.25,186.46,283.33,186.69,287.53,188.62Z" />
        </g>
        <path class="cls-10"
            d="M211.17,182.15c.15-.15.58,0,1.3.14a5.45,5.45,0,0,0,2.93-.51c1.17-.52,2.72-1.5,4.46-2.42.87-.46,1.76-1,2.76-1.44a16.14,16.14,0,0,1,3.4-1.27,10.52,10.52,0,0,1,3.82-.13,13.76,13.76,0,0,1,3.29,1,22.06,22.06,0,0,1,4.7,2.84,8.48,8.48,0,0,1,2.53,2.85c.4.85.35,1.4.17,1.46s-.52-.27-1.11-.77a14.51,14.51,0,0,0-2.75-1.76,33.64,33.64,0,0,0-4.54-2,9.87,9.87,0,0,0-5.44-.48,36.16,36.16,0,0,0-5.61,2.26L218.5,183a15.59,15.59,0,0,1-2.46.85,6.38,6.38,0,0,1-2.31.15,4.25,4.25,0,0,1-1.68-.57C211.21,182.84,211,182.28,211.17,182.15Z" />
        <path class="cls-10"
            d="M240,185c.05,0-.17.34-.73.4s-1.26,0-2.18,0a69,69,0,0,1-7.14-.33,31.14,31.14,0,0,1-7-1.64,5.34,5.34,0,0,1-2-1c-.4-.43-.29-.82-.25-.79s.07.3.45.58a6.39,6.39,0,0,0,1.94.72,42.7,42.7,0,0,0,6.91,1.4c2.74.31,5.26.39,7.08.55l2.14.2A2.77,2.77,0,0,0,240,185Z" />
        <path class="cls-10"
            d="M232,179.43a4.32,4.32,0,0,1,.26,2.15,5.9,5.9,0,0,1-.1,1.13,2.76,2.76,0,0,1-1.85,2.12,3.33,3.33,0,0,1-1.63.1,7,7,0,0,1-2.74-1.17,3.18,3.18,0,0,1-.92-1,2.72,2.72,0,0,1-.31-1.15,4.7,4.7,0,0,1,.21-1.61c.11-.36.21-.55.26-.53s.05.22,0,.58a6.94,6.94,0,0,0,0,1.5,2.41,2.41,0,0,0,1.11,1.67,7,7,0,0,0,2.46,1,2.38,2.38,0,0,0,2.26-.68,3.27,3.27,0,0,0,.67-2A10.89,10.89,0,0,1,232,179.43Z" />
        <path class="cls-10"
            d="M286.32,194s-.12.22-.46.5a3.18,3.18,0,0,1-.69.43,4.13,4.13,0,0,1-1.07.22c-.77.06-1.66.1-2.67.13a15.59,15.59,0,0,1-3.32-.25,9.19,9.19,0,0,1-3.1-1.29,8.33,8.33,0,0,0-2.33-1.08,14.93,14.93,0,0,0-2.38-.2,3.38,3.38,0,0,1,2.49-.32,8.06,8.06,0,0,1,2.56,1,9.38,9.38,0,0,0,2.91,1.16,36.19,36.19,0,0,0,5.82.33,4.33,4.33,0,0,0,.94-.08,3.65,3.65,0,0,0,.68-.29C286.07,194.08,286.29,194,286.32,194Z" />
        <path class="cls-10"
            d="M272.35,187.69s-.06.2-.07.53a5.55,5.55,0,0,0,.21,1.41,5.48,5.48,0,0,0,.95,1.86,4.63,4.63,0,0,0,2,1.5,1.86,1.86,0,0,0,2.09-.43,8.15,8.15,0,0,0,.56-1l.52-.9a3.29,3.29,0,0,0,.43-1.86s.2.14.29.52a2.69,2.69,0,0,1-.25,1.58c-.12.3-.29.61-.44.94a6.12,6.12,0,0,1-.56,1.12,2.51,2.51,0,0,1-2.89.71,5.2,5.2,0,0,1-3.19-3.95,3.85,3.85,0,0,1,0-1.57C272.1,187.78,272.32,187.65,272.35,187.69Z" />
        <path class="cls-10"
            d="M288,194.42c0,.19-.25.5-.92.58a4,4,0,0,1-2.61-.73,15.54,15.54,0,0,1-2.61-2.45,7.32,7.32,0,0,0-1.25-1.07,12.3,12.3,0,0,0-1.63-.9c-.62-.29-1.3-.59-1.82-.79-.27-.11-.57-.26-.8-.33a5.85,5.85,0,0,0-.75-.16,28,28,0,0,0-3.11-.13,7.59,7.59,0,0,0-1.94.14c-.44.09-.74.24-.92.12s-.2-.52.24-1.07a4.4,4.4,0,0,1,2.33-1.29,13.27,13.27,0,0,1,3.61-.53,7.09,7.09,0,0,1,1.18.13,9.89,9.89,0,0,1,1.13.34,17.39,17.39,0,0,1,2.12.86,11,11,0,0,1,2.08,1.23A8.28,8.28,0,0,1,284,190c.82,1.11,1.32,2,1.84,2.6C286.86,193.88,287.9,194,288,194.42Z" />
        <path class="cls-10"
            d="M242.34,215.8c-.1.39-.91.61-2.15.41a8,8,0,0,1-2.11-.64,2.87,2.87,0,0,1-.85-.57,2.44,2.44,0,0,1-.63-1,3.45,3.45,0,0,1-.17-1.06l0-.67a8.37,8.37,0,0,1,.37-2.8,4.55,4.55,0,0,1,1.44-2.13,2.66,2.66,0,0,1,1.63-.65c.43,0,.66.17.7.37.08.42-.43.87-.73,1.67a8.15,8.15,0,0,0-.41,3.5v.62c0,.26,0,.13,0,.17l0,0v0s0,0,.08.08l1.51,1.07C241.85,214.88,242.44,215.39,242.34,215.8Z" />
        <path class="cls-10"
            d="M245.41,216c0-.2,1.7-.52,3.83-.36a15,15,0,0,1,1.52.19,1.07,1.07,0,0,1,.71.54,1.16,1.16,0,0,1,.08.71,4.49,4.49,0,0,1-.26,1.09s-.14-.07-.2-.28A4.8,4.8,0,0,1,251,217c0-.34-.08-.49-.41-.54s-.92-.08-1.43-.12C247.12,216.22,245.43,216.2,245.41,216Z" />
        <path class="cls-10"
            d="M270.19,220.57c0,.05-.11.12-.33.11a1.33,1.33,0,0,1-.79-.38c-.56-.47-1-1.27-1.84-1.06a3.47,3.47,0,0,0-1.81,1.36c-.44.5-.76.78-.84.72s.07-.45.41-1a4.77,4.77,0,0,1,.71-1,2.61,2.61,0,0,1,1.4-.8,1.75,1.75,0,0,1,1.6.5,9.86,9.86,0,0,1,.75.93C269.8,220.44,270.17,220.46,270.19,220.57Z" />
        <path class="cls-10"
            d="M271.38,219.32c.06-.41.42-.75.63-1.16a2.52,2.52,0,0,0,.39-1.16,5.18,5.18,0,0,0-.12-.92,5.44,5.44,0,0,1-.08-1.24c0-.73.26-1.25.65-1.38s.88.14,1.36.7a6.13,6.13,0,0,1,.68,1,3.74,3.74,0,0,1,.51,1.92,3.26,3.26,0,0,1-.94,2.15,2.92,2.92,0,0,1-1.57.83C271.84,220.25,271.3,219.71,271.38,219.32Z" />
        <path class="cls-10"
            d="M224,172.36c0-.18,1.84-.49,5.22-.38a63.58,63.58,0,0,1,14.06,2.3c1.46.4,3,.79,4.57,1.35a20.48,20.48,0,0,1,4.74,2.44l1.13.75a7.86,7.86,0,0,1,1.23,1,5.72,5.72,0,0,1,1.54,3.14,13.26,13.26,0,0,1-.75,6.33,32.8,32.8,0,0,1-2.79,5.67c-1.08,1.8-2.11,3.56-3.28,5.44a15.21,15.21,0,0,1-4.93,5.21,14.51,14.51,0,0,1-7.19,1.8,42.5,42.5,0,0,1-6.94-.64l-3.32-.56a24.77,24.77,0,0,1-3.27-.71c-2.14-.59-4.16-1.33-6.1-2.06-1-.38-1.9-.71-2.9-1.14a11.18,11.18,0,0,1-2.91-1.7,11.94,11.94,0,0,1-3.61-5.29,16.94,16.94,0,0,1-.91-5.77,33.09,33.09,0,0,1,.48-5.23c.27-1.63.56-3.18.94-4.67a26.08,26.08,0,0,1,1.41-4.19,7.86,7.86,0,0,1,2.58-3.35,6.23,6.23,0,0,1,3.58-1,20.21,20.21,0,0,1,2.85.28c3.3.47,5.12.83,5.1,1s-1.87.24-5.21.12a24,24,0,0,0-2.69,0,4.73,4.73,0,0,0-2.65.89c-1.53,1.19-2.3,3.86-2.91,6.64-.29,1.42-.51,2.94-.71,4.53a34,34,0,0,0-.29,4.87,14.59,14.59,0,0,0,.91,4.88,9.39,9.39,0,0,0,2.86,4.06c1.24,1,3.12,1.57,5.08,2.3s3.87,1.38,5.87,1.92a23.51,23.51,0,0,0,3.07.63l3.19.51a39.7,39.7,0,0,0,6.45.6,11.74,11.74,0,0,0,5.74-1.38,12.48,12.48,0,0,0,3.95-4.22l3.31-5.32a32.08,32.08,0,0,0,2.64-5.13,13.58,13.58,0,0,0,.68-2.55,8.3,8.3,0,0,0,.07-2.42,3.15,3.15,0,0,0-.77-1.77,14.87,14.87,0,0,0-1.92-1.47,18.67,18.67,0,0,0-4.16-2.33c-1.44-.56-3-1-4.35-1.48C231.44,172.67,224,172.82,224,172.36Z" />
        <path class="cls-10"
            d="M297.35,186.6c0-.18,1.66-.07,4.43.87.69.24,1.45.53,2.26.89a9.12,9.12,0,0,1,1.3.68,3.64,3.64,0,0,1,1.28,1.35,4.62,4.62,0,0,1,.45,1.87,17.61,17.61,0,0,1,0,1.78,21.64,21.64,0,0,1-.54,3.78,35.12,35.12,0,0,1-3.09,8,27.42,27.42,0,0,1-2.56,4.15,14.38,14.38,0,0,1-4,3.67,10.78,10.78,0,0,1-2.72,1.14,13.27,13.27,0,0,1-2.9.38c-1.91,0-3.67-.08-5.57-.22a40.9,40.9,0,0,1-11.51-2.41,25.41,25.41,0,0,1-2.84-1.3,5.6,5.6,0,0,1-1.51-1.19,6.36,6.36,0,0,1-1-1.61c-.45-1.08-.63-2-.89-2.82s-.64-1.7-.9-2.74a23.65,23.65,0,0,1-.28-5.75c0-1.73,0-3.51.14-5.31.26-3.56,2-7.48,5.62-8.84a7.44,7.44,0,0,1,2.59-.43c.79,0,1.47,0,2.18.06,1.39.05,2.73.1,4,.17a48.76,48.76,0,0,1,12.11,1.82c2.78.81,4.22,1.52,4.16,1.7s-1.62-.12-4.42-.56a64.11,64.11,0,0,0-11.91-.84l-4,0c-.69,0-1.44,0-2.09,0a5,5,0,0,0-1.75.35,5.65,5.65,0,0,0-2.66,2.58,10.1,10.1,0,0,0-1.11,4.19c-.12,1.56,0,3.25,0,5.06a21.17,21.17,0,0,0,.27,5c.18.75.53,1.57.86,2.53s.52,1.89.81,2.57a2.59,2.59,0,0,0,1.25,1.38,25.37,25.37,0,0,0,2.44,1.11A39.89,39.89,0,0,0,286,212.06c1.77.15,3.61.28,5.24.28a8.47,8.47,0,0,0,4.31-1.05c2.54-1.47,4.32-4.1,5.73-6.61a35.38,35.38,0,0,0,3.22-7.39,21.55,21.55,0,0,0,.7-3.41,6.34,6.34,0,0,0-.05-2.76,3.67,3.67,0,0,0-1.72-1.48c-.74-.43-1.43-.78-2.06-1.1C298.8,187.32,297.29,186.82,297.35,186.6Z" />
        <path class="cls-10"
            d="M272.17,181.1c.16.11.11.58-.48,1a5.75,5.75,0,0,1-2.39.69c-.94.14-2.06.25-3.3.32-.63,0-1.28.07-2,.09-.34,0-.66,0-1.05,0l-1.2-.06a8.19,8.19,0,0,1-2.34-.59,13.75,13.75,0,0,1-1.89-.89,13.9,13.9,0,0,1-2.86-2.06c-.75-.73-1.1-1.24-1.41-1.51s-.57-.41-.62-.61.25-.54,1-.5a6.23,6.23,0,0,1,2.28.9,30.68,30.68,0,0,0,2.81,1.29,13.3,13.3,0,0,0,3.4,1l.91.05,1,0c.67,0,1.32.05,1.93.09,1.24.08,2.35.19,3.29.32s1.6.3,2,.33S272,181,272.17,181.1Z" />
        <path class="cls-10"
            d="M268,200.67c-.16.13-.69-.29-1.22-1.24a17,17,0,0,1-1.73-4.2c-.24-1-.32-2.06-.46-3.06a4.69,4.69,0,0,0-.9-2.47,2.86,2.86,0,0,0-2.24-.86,3.87,3.87,0,0,0-2.53,1.32,13.29,13.29,0,0,0-1.13,1.5l-1.22,1.63-2.33,3.07A32.82,32.82,0,0,1,252,199c-.73.82-1.42,1.57-2,2.24s-1.21,1.29-1.77,1.8a7.52,7.52,0,0,1-1.63,1.21,2.31,2.31,0,0,1-1.38.31c-.33-.06-.46-.22-.45-.31s.56-.27,1.14-.94a36.49,36.49,0,0,0,2.45-3.42c.53-.75,1.11-1.57,1.74-2.43s1.32-1.78,2-2.79l2.15-3.11,1.15-1.63a15.74,15.74,0,0,1,1.37-1.82,6.61,6.61,0,0,1,4.62-2.23,5.47,5.47,0,0,1,4.52,2.06,6.86,6.86,0,0,1,1.23,4c0,1.16,0,2.12.07,2.93.15,1.67.58,3.13.74,4.15S268.18,200.55,268,200.67Z" />
        <path class="cls-10"
            d="M310,193.82c-.1-.19.43-.6.66-1.59a5.5,5.5,0,0,0,0-1.88l-.1-.61a2.57,2.57,0,0,0-.1-.53.35.35,0,0,0-.36-.3,6.83,6.83,0,0,1-1.42,0,16.84,16.84,0,0,1-1.92-.34c-1.28-.31-2.54-.68-3.91-1.07-2.71-.78-5.67-1.67-8.77-2.66-1.55-.47-3.1-1-4.45-1.39a10.64,10.64,0,0,0-2-.35c-.66-.06-1.36-.07-2.07-.09-2.82-.08-5.36-.19-7.49-.33s-3.86-.3-5.05-.48a6.84,6.84,0,0,0-1.24-.11c-.27,0-.45.05-.52,0s0-.29.29-.53A3.16,3.16,0,0,1,273,181c1.2-.18,2.92-.34,5.06-.48s4.67-.24,7.49-.32c.7,0,1.44,0,2.25,0a12.47,12.47,0,0,1,2.49.36c1.63.4,3.07.9,4.64,1.38,3.1,1,6.05,2,8.71,2.89l3.74,1.31q.84.27,1.62.45l.75.14.19,0,.28,0a2.94,2.94,0,0,1,.67.12,2,2,0,0,1,1.39,1.86,6.62,6.62,0,0,1,0,.85c0,.24,0,.47,0,.7a5.17,5.17,0,0,1-.62,2.39,2.58,2.58,0,0,1-1.14,1.1C310.2,193.94,310,193.91,310,193.82Z" />
        <path class="cls-10"
            d="M309,195.39c.37.18-.59,3-2.43,7.38-.47,1.1-1,2.29-1.56,3.59a24.59,24.59,0,0,1-2.31,4.09,31.92,31.92,0,0,1-3.43,3.84,9,9,0,0,1-2.41,1.91,7.74,7.74,0,0,1-3.23.67c-1,0-1.9-.06-2.78-.1l-2.61-.14c-1.71-.11-3.35-.2-4.93-.33l-2.42-.26a16.32,16.32,0,0,1-2.25-.6c-1.37-.46-2.56-.9-3.69-1.32a30.15,30.15,0,0,1-3.09-1.26,4.44,4.44,0,0,1-1.23-1,4.88,4.88,0,0,1-.69-1.06c-.59-1.32-.6-2.07-.44-2.16s.63.58,1.42,1.53a3.57,3.57,0,0,0,1.65,1.14c.74.25,1.86.46,3,.75l3.76,1a16.93,16.93,0,0,0,2,.38l2.16.11,10.12.33a5,5,0,0,0,2-.37,6.45,6.45,0,0,0,1.65-1.32,35.11,35.11,0,0,0,3.26-3.4,55.41,55.41,0,0,0,4.17-6.94C307,197.69,308.61,195.21,309,195.39Z" />
        <path class="cls-10"
            d="M229.27,205.4c0,.17-1.35.6-3.9.39a26,26,0,0,1-4.53-.85c-1.73-.47-3.62-1-5.76-1.77a19.3,19.3,0,0,1-6.67-3.71,11.22,11.22,0,0,1-2.7-3.62,12.64,12.64,0,0,1-1-4.64,76,76,0,0,1,.08-9.39c.08-.83.19-1.67.35-2.51s.36-1.65.47-2.36a4.5,4.5,0,0,0,0-1.81,1,1,0,0,0-.24-.42c.17,0-1-.5-1.28-1.21a2.64,2.64,0,0,1-.17-1.92c.1-.4.14-.47.2-.69l.18-.56.35-1.12.34-1.12.17-.43a2.82,2.82,0,0,1,.25-.49,2.62,2.62,0,0,1,.75-.77,2.41,2.41,0,0,1,1.08-.38,3.75,3.75,0,0,1,.58,0l.45,0,1.17.12,2.33.23c1.55.16,3.07.32,4.56.51,3,.38,5.86.84,8.57,1.43l3.81.82c1.19.25,2.41.26,3.69.45a23.55,23.55,0,0,1,3.56.83l3.08,1a52,52,0,0,1,9,3.64c2,1.11,3,1.95,2.9,2.11s-1.25-.34-3.36-1.1a84.43,84.43,0,0,0-9.14-2.7,48.93,48.93,0,0,0-6.36-1.36c-1.11-.12-2.42-.08-3.76-.31l-4-.71c-2.64-.49-5.44-.88-8.38-1.19l-4.5-.45-2.32-.2L208,169h-.15c-.32,1-.64,2.06-1,3.11h0c-.13-.09.34.24.55.44a4,4,0,0,1,1,1.72,7.13,7.13,0,0,1,.09,3.13c-.15.92-.37,1.73-.51,2.45s-.25,1.51-.33,2.27a80.25,80.25,0,0,0-.25,9,10.13,10.13,0,0,0,.65,3.7,8.94,8.94,0,0,0,2,2.88,18,18,0,0,0,5.73,3.54,70.61,70.61,0,0,0,9.7,3.44C227.89,205.19,229.26,205.16,229.27,205.4Z" />
        <path class="cls-10"
            d="M271.16,234.5c.06.09,0,.25-.17.51s-.25.66-.49,1.26a3.43,3.43,0,0,1-.64,1,2.59,2.59,0,0,1-1.53.73c-.55.07-1,.08-1.48.11l-1.56.07c-2.2.09-4.81.15-7.72.17-1.46,0-3,0-4.68-.17a19.26,19.26,0,0,1-5.12-1.19l-2.28-.9a14.9,14.9,0,0,0-2.11-.62,33.46,33.46,0,0,0-4.3-.61,35.49,35.49,0,0,1-7.82-1.2,11.52,11.52,0,0,1-4.8-2.7c-.92-1-1.17-1.66-1-1.78s.72.28,1.74.85a14.63,14.63,0,0,0,4.6,1.57,50.3,50.3,0,0,0,7.48.5,30.53,30.53,0,0,1,4.74.49,17.21,17.21,0,0,1,2.52.69c.82.3,1.59.63,2.33.91a27,27,0,0,0,8.79,1.39c2.9.14,5.51.3,7.7.48l2.88.27a1.19,1.19,0,0,0,.7-.13,2.39,2.39,0,0,0,.58-.57,4.62,4.62,0,0,1,1.07-1.09C270.9,234.39,271.12,234.41,271.16,234.5Z" />
        <path class="cls-10"
            d="M205,171c-.13.39-2,.17-4.81-.5-1.4-.32-3.13-.82-4.91-1.29-.44-.11-.88-.21-1.32-.29l-1.48-.18a32.09,32.09,0,0,1-3.27-.51,39,39,0,0,1-6.14-1.93,11.3,11.3,0,0,0-2.3-.71,6.32,6.32,0,0,0-2,0,7,7,0,0,0-1.65.46,2.4,2.4,0,0,1-1.17.27,1.25,1.25,0,0,1-1.07-.79,1.47,1.47,0,0,1,.16-1.23c.13-.22.27-.3.36-.27s.17.16.23.37.15.53.3.6,0,0,0,0,0,0,0,0,0,0,0-.1.11-.13.32-.33a6.81,6.81,0,0,1,2-1.06,7.53,7.53,0,0,1,2.73-.43,11.74,11.74,0,0,1,3,.58c1.84.56,3.81,1.16,5.88,1.61,1,.23,2,.37,3.12.55l1.57.26c.55.13,1.06.29,1.54.45,1.9.67,3.44,1.34,4.8,1.93C203.55,169.64,205.14,170.57,205,171Z" />
        <path class="cls-10"
            d="M175.5,164.81c-.17-.11-.18-.59.21-1.42a3,3,0,0,1,1.29-1.33,4.06,4.06,0,0,1,1.12-.36c.37-.06.71-.11,1.1-.15a16.81,16.81,0,0,1,5.39.33c1,.2,2.07.61,2.84.76a6.06,6.06,0,0,0,1.27.09c.49,0,1.13,0,1.74,0a29.59,29.59,0,0,1,6.3,1.51c.89.28,1.71.52,2.48.69s1.57.31,2.32.49a10.63,10.63,0,0,1,3.34,1.41c.7.46,1,.82,1,1s-.57.2-1.38.08a28.16,28.16,0,0,0-3.24-.4c-.69,0-1.47-.05-2.38-.13a22.33,22.33,0,0,1-2.81-.48,45.31,45.31,0,0,0-5.83-1.19c-.48,0-.93,0-1.52,0a8,8,0,0,1-1.89-.2c-1.25-.33-2-.72-2.89-1a22.77,22.77,0,0,0-4.67-.88,8.86,8.86,0,0,0-1.64,0,2.22,2.22,0,0,0-1,.49C176.06,164.58,175.68,164.92,175.5,164.81Z" />
        <path class="cls-10"
            d="M176.69,202.62c.1,0,.13.38,0,1a7.41,7.41,0,0,1-1.15,2.62,7.22,7.22,0,0,1-3.71,2.85,7,7,0,0,1-3,.28,6.25,6.25,0,0,1-3.25-1.41,8.41,8.41,0,0,1-2.13-3.1c-.45-1.07-.93-2.18-1.41-3.33-.93-2.3-2-4.69-2.91-7.51a26.4,26.4,0,0,1-.89-4.4,19.91,19.91,0,0,0-.84-4.09c-.45-1.35-1.1-2.8-1.54-4.45a23.35,23.35,0,0,1-.78-5,23.62,23.62,0,0,1,1.66-9.81A22.89,22.89,0,0,1,159,162a9.57,9.57,0,0,1,1.74-1.88A6.55,6.55,0,0,1,163.1,159a8.79,8.79,0,0,1,4.75.21,13.74,13.74,0,0,1,3.78,1.86,20.91,20.91,0,0,1,5.2,5.05,20.55,20.55,0,0,1,3.84,9.55c.27,2.42,0,3.75-.19,3.75s-.36-1.31-1-3.53a22.41,22.41,0,0,0-4.37-8.47,19.46,19.46,0,0,0-4.88-4.26,11.79,11.79,0,0,0-3.15-1.42,6.22,6.22,0,0,0-3.28-.08,4.53,4.53,0,0,0-2.51,2,19.19,19.19,0,0,0-1.88,3.67,21.21,21.21,0,0,0-1.4,8.59,19.9,19.9,0,0,0,.67,4.38c.35,1.39.95,2.78,1.44,4.32a16.1,16.1,0,0,1,.59,2.37c.14.79.23,1.55.31,2.28a23.14,23.14,0,0,0,.7,4c.69,2.54,1.73,5,2.56,7.35.43,1.15.84,2.27,1.23,3.34a6.51,6.51,0,0,0,1.42,2.42,4.92,4.92,0,0,0,4.41,1.09,6.4,6.4,0,0,0,3.25-1.95C176.11,203.88,176.45,202.54,176.69,202.62Z" />
        <path class="cls-10"
            d="M169.21,263.8c-.33-.33,2.09-2.81,3.88-7.91a59.82,59.82,0,0,0,2.35-9.25c.68-3.58,1.33-7.53,1.82-11.7a185.48,185.48,0,0,0,1.26-21.47,31.51,31.51,0,0,0-.36-6.38c-.29-1.46-.63-2.26-.44-2.37s.87.51,1.55,2a20.83,20.83,0,0,1,1.37,6.65,104.88,104.88,0,0,1-.4,21.92,111.82,111.82,0,0,1-2.09,11.91,47,47,0,0,1-3.1,9.49,21,21,0,0,1-3.78,5.66C170.13,263.5,169.34,263.94,169.21,263.8Z" />
        <path class="cls-10"
            d="M294.55,211.92c-.39,0-.93-1.27-1.17-3.59a11.14,11.14,0,0,1,.43-4.23c.51-1.61,1.42-3,1.85-4.3a14.83,14.83,0,0,0,.44-4.18c0-1.46.14-2.77.26-3.87.24-2.2.59-3.57,1-3.58s.81,1.35,1.11,3.55c.15,1.09.28,2.4.38,3.85,0,.73.1,1.48.09,2.36a8.6,8.6,0,0,1-.45,2.83c-.67,1.88-1.62,3.15-2.1,4.29a14.7,14.7,0,0,0-.9,3.35C295.2,210.48,295,211.9,294.55,211.92Z" />
        <path class="cls-10"
            d="M294.43,216.4c.1,0,.08.58-.05,1.65-.07.53-.17,1.19-.29,2s-.37,1.65-.6,2.65a75.11,75.11,0,0,1-6.21,16.14,153.85,153.85,0,0,1-13.87,21.54c-2.89,3.85-6,7.81-9.26,11.88l-2.48,3.11a16.92,16.92,0,0,1-3.13,3.07,8,8,0,0,1-1.07.64l-.91.42c-.55.27-1.15.63-1.89.95a6.35,6.35,0,0,1-2.55.58l-2.07.05a95.2,95.2,0,0,1-16.35-.7,39.33,39.33,0,0,1-14.64-5.07,27.11,27.11,0,0,1-5.71-4.6,57.21,57.21,0,0,1-4.17-5.3,32.92,32.92,0,0,0-8.25-7.86,38.18,38.18,0,0,0-4.35-2.49c-1.43-.68-2.86-1.22-4.2-1.82a19.81,19.81,0,0,1-3.65-2,9.21,9.21,0,0,1-2.47-2.62,6.57,6.57,0,0,1-1-4.77c.28-1.11.73-1.54.79-1.5s-.13.58-.19,1.58a6.48,6.48,0,0,0,1.39,4c1.1,1.55,3.14,2.76,5.79,3.73,1.31.5,2.79,1,4.34,1.63a36.14,36.14,0,0,1,4.72,2.45,34.28,34.28,0,0,1,9.08,8.13,55.08,55.08,0,0,0,4.1,5,25.31,25.31,0,0,0,5.23,4.07,37.29,37.29,0,0,0,13.64,4.52,96.88,96.88,0,0,0,15.86.61l2.06,0a3.54,3.54,0,0,0,1.43-.33c.51-.22,1.08-.56,1.75-.89l.93-.43a5.25,5.25,0,0,0,.67-.39c1.82-1.31,3.35-3.57,5-5.58,3.27-4.05,6.43-7.95,9.35-11.71a173.44,173.44,0,0,0,14.2-20.87,92.48,92.48,0,0,0,7-15.47c.31-1,.64-1.79.85-2.54s.4-1.37.56-1.88C294.11,216.9,294.33,216.38,294.43,216.4Z" />
        <path class="cls-10"
            d="M221.81,358.29c-.33-.13,1.19-4.78,5.55-11.22,2.15-3.23,5-6.88,8.08-10.85,1.56-2,3.19-4.08,4.79-6.28s3.22-4.5,4.68-6.95a18.94,18.94,0,0,0,1.84-3.56,10.65,10.65,0,0,0,.43-3.66c0-.67,0-1.37,0-2.1l.18-2.14.35-2c.17-.66.33-1.31.49-2a52.16,52.16,0,0,1,2.65-6.87l2.65-5.68a45.86,45.86,0,0,0,3.06-8.34l.32-1.36c.07-.4.13-.74.2-1,.12-.55.24-.84.34-.84s.19.3.26.87c0,.29.06.65.09,1.07s0,.91-.06,1.46a32.8,32.8,0,0,1-2.25,9c-1.33,3.64-3.34,7.77-4.59,12.47-.13.59-.26,1.18-.4,1.79l-.27,1.83-.11,1.87c0,.63,0,1.29,0,2a13.13,13.13,0,0,1-.55,4.65,20.57,20.57,0,0,1-2.09,4.14,78.22,78.22,0,0,1-4.89,7.17c-1.68,2.23-3.38,4.3-5,6.25-3.25,3.9-6.19,7.35-8.51,10.36C224.39,354.28,222.24,358.48,221.81,358.29Z" />
        <path class="cls-10"
            d="M223.16,356.5c0,.14-1.88-.27-4.36-2.37a36.74,36.74,0,0,1-4.06-4.15,53.93,53.93,0,0,0-5.06-5.42,13.63,13.63,0,0,0-3.37-2.29,33.68,33.68,0,0,0-4.36-1.52,15.36,15.36,0,0,1-2.53-1.08,8.59,8.59,0,0,1-2.34-1.94,15.11,15.11,0,0,1-2.56-5.32,49.78,49.78,0,0,0-1.83-5.23,47.61,47.61,0,0,0-2.58-5.15,112.7,112.7,0,0,0-6.86-10.22c-2.5-3.45-5.05-6.81-7.17-10.37a69.62,69.62,0,0,1-5.1-10.7c-1.35-3.51-2.43-6.89-3.38-10.06a84.54,84.54,0,0,1-2.41-9,17.39,17.39,0,0,1-.2-4.23,12.55,12.55,0,0,1,.89-3.7,25.08,25.08,0,0,1,2.88-5.11,15.59,15.59,0,0,1,1.31-1.71,3.92,3.92,0,0,1,1.36-1,1.65,1.65,0,0,1,1.06-.06c.23.08.31.18.3.22s-.49,0-1.09.39a3.61,3.61,0,0,0-.94,1,19,19,0,0,0-1,1.76,29.12,29.12,0,0,0-2.3,5.05,12.93,12.93,0,0,0-.18,7c.56,2.6,1.66,5.49,2.69,8.62s2.2,6.41,3.58,9.79a71.49,71.49,0,0,0,5,10.2c2,3.35,4.55,6.65,7.08,10.12a108,108,0,0,1,7,10.54,44.43,44.43,0,0,1,4.49,11,13,13,0,0,0,2,4.44,7.72,7.72,0,0,0,3.66,2.34,33.09,33.09,0,0,1,4.57,1.81,15.62,15.62,0,0,1,3.77,2.78,48.25,48.25,0,0,1,4.92,5.93,47.13,47.13,0,0,0,3.56,4.35C221.69,355.52,223.28,356.26,223.16,356.5Z" />
        <path class="cls-10"
            d="M171.27,191.77a23.44,23.44,0,0,1-4.14-1,1.57,1.57,0,0,1-.52-.33,1.33,1.33,0,0,1-.3-.59,7.89,7.89,0,0,1-.15-1.15,7.77,7.77,0,0,1,.15-2.55,4.72,4.72,0,0,1,1.62-2.37l2.23-1.88c.77-.63,1.49-1.27,2.27-1.85a5.45,5.45,0,0,1,2.62-1.16,2.86,2.86,0,0,1,1.41.2,1.13,1.13,0,0,1,.57.57c.1.21.16.38.23.56a10.78,10.78,0,0,1,.64,2.09,4,4,0,0,1-.56,3.12c-.47.62-.91.74-.92.71s.33-.26.67-.87a3.91,3.91,0,0,0,.3-2.85,13,13,0,0,0-.7-2c-.08-.17-.16-.37-.23-.51a.52.52,0,0,0-.27-.26,2.36,2.36,0,0,0-1.07-.12c-1.56.21-3,1.67-4.48,2.91l-2.23,1.85a4.1,4.1,0,0,0-1.43,2,7,7,0,0,0-.19,2.32,7.89,7.89,0,0,0,.08,1.05.69.69,0,0,0,.47.57A24.48,24.48,0,0,1,171.27,191.77Z" />
        <path class="cls-10"
            d="M175.81,195.64c-.11,0-.06-.37-.21-.84s-.51-1.1-.8-2a4.74,4.74,0,0,1-.13-2.26c.1-.55.23-.88.33-.87s.16.36.2.9a8.58,8.58,0,0,0,.31,2,8,8,0,0,1,.61,2.1C176.15,195.35,175.89,195.68,175.81,195.64Z" />
        <path class="cls-10"
            d="M166.91,169.9a23.56,23.56,0,0,1-1.36,4.06c-.47,1.24-1,2.71-1.66,4.34a11.21,11.21,0,0,0-.68,2.56,18.11,18.11,0,0,0-.1,2.88l.23,5.67c0,.88,0,1.71.13,2.45a6,6,0,0,0,.59,2,6.52,6.52,0,0,0,1.95,2.29c.58.42,1,.59.94.65a2.44,2.44,0,0,1-1.1-.41,6.11,6.11,0,0,1-2.25-2.27,6.24,6.24,0,0,1-.74-2.13,22,22,0,0,1-.21-2.5c-.1-1.75-.21-3.66-.29-5.69a17.51,17.51,0,0,1,.12-3,11.11,11.11,0,0,1,.77-2.71l1.81-4.28A25.4,25.4,0,0,1,166.91,169.9Z" />
        <path class="cls-10"
            d="M172.75,173.33a51.1,51.1,0,0,0-2.16-4.73,11.86,11.86,0,0,0-1.47-2.11,5.74,5.74,0,0,0-2.34-1.61,3.66,3.66,0,0,0-2.95.18,6.18,6.18,0,0,0-2.11,2.61,10.22,10.22,0,0,0-1.31,3.2,28.36,28.36,0,0,0-.21,3.29,36.59,36.59,0,0,0,.19,5.63,20.83,20.83,0,0,0,1.4,5,3.58,3.58,0,0,1-.77-1.19,13.41,13.41,0,0,1-1.15-3.7,31.87,31.87,0,0,1-.36-5.72,27,27,0,0,1,.17-3.4,11,11,0,0,1,1.38-3.44,6.67,6.67,0,0,1,2.41-2.88,4.28,4.28,0,0,1,3.54-.2,6.06,6.06,0,0,1,2.57,1.85,11.85,11.85,0,0,1,1.48,2.27,19.58,19.58,0,0,1,1.43,3.59A4.13,4.13,0,0,1,172.75,173.33Z" />
        <path class="cls-10"
            d="M187.11,167.86c.79.21.12,5.25-2.15,11-.56,1.45-1.16,2.79-1.76,4l-.45.88a3.21,3.21,0,0,1-.43.66,2.1,2.1,0,0,1-1,.66,1.6,1.6,0,0,1-1.63-.47,1.77,1.77,0,0,1-.43-1,4.34,4.34,0,0,1,.07-.95c.27-2,.64-3.24,1-3.24s.79,1.23,1.07,3.24a3,3,0,0,0,.1.62h0l-.16,0-.25.08a.74.74,0,0,0-.28.15c0,.05,0,0,0,0s0,0,0,0a.94.94,0,0,0-.19-.31,1.57,1.57,0,0,0-.18-.19s-.19-.16-.17-.15a.63.63,0,0,1,0-.14l.32-.9c.45-1.23,1-2.58,1.51-4C184.37,172.19,186.3,167.64,187.11,167.86Z" />
        <path class="cls-10"
            d="M237.75,115.67c-.06.23-1.07.07-2.8.3a17.76,17.76,0,0,0-6.86,2.6c-1.35.82-2.77,1.84-4.34,3a50.63,50.63,0,0,1-5.27,3.41c-3.85,2.16-8.3,3.9-11.77,7a29.19,29.19,0,0,0-4.43,5.3c-1.29,1.91-2.53,3.84-3.69,5.63a91,91,0,0,0-5.62,9.83c-2.8,5.79-3.38,9.81-3.85,9.75-.18,0-.31-1.07-.09-2.93a31.63,31.63,0,0,1,2-7.65,67.86,67.86,0,0,1,5.21-10.44c1.12-1.89,2.29-3.81,3.61-5.83a30.58,30.58,0,0,1,4.86-5.89,30.24,30.24,0,0,1,6.38-4.2c2.15-1.11,4.22-2,6.1-3,3.72-1.86,6.81-4.3,9.89-5.8a15.84,15.84,0,0,1,7.84-1.91C236.85,114.94,237.8,115.5,237.75,115.67Z" />
        <path class="cls-10"
            d="M298.77,184.32c-.31-.2,1.63-2.78,2.6-8a36.32,36.32,0,0,0,.36-9.4c-.13-1.81-.37-3.75-.68-5.78l-.23-1.55-.13-.79c0-.26-.08-.57-.12-.7a3,3,0,0,0-.18-.53.32.32,0,0,0-.06-.08.1.1,0,0,0-.16,0l0,.05a2,2,0,0,1-.35.29,2.78,2.78,0,0,1-.53.3,3.34,3.34,0,0,1-2.19.13,4.24,4.24,0,0,1-1.75-1,5.36,5.36,0,0,1-1.09-1.48,26.16,26.16,0,0,1-1-2.74,21.6,21.6,0,0,0-8.3-10.56,21.24,21.24,0,0,0-4.55-2.33,24.09,24.09,0,0,1-5.07-2.42,19.06,19.06,0,0,1-3.88-3.9,25.29,25.29,0,0,0-3.1-3.44,17.31,17.31,0,0,0-3.67-2.27l-3.93-2-7.05-3.56-5.78-3a36.73,36.73,0,0,0-4.34-2.07c-2.45-.92-4-.79-4-1s1.53-.73,4.3-.09a28.5,28.5,0,0,1,4.73,1.68l6,2.6,7.2,3.24,4,1.83a19.41,19.41,0,0,1,4.3,2.51c2.76,2.27,4.39,5.38,6.87,7.05a22.17,22.17,0,0,0,4.5,2.06,24.14,24.14,0,0,1,5.13,2.62,24.41,24.41,0,0,1,8.19,9.32,22.75,22.75,0,0,1,1.16,2.76,24.16,24.16,0,0,0,.85,2.43,1.65,1.65,0,0,0,1,1,.61.61,0,0,0,.39,0l0,0s0,.05.14-.12a3.19,3.19,0,0,1,.93-.74,2.31,2.31,0,0,1,2.7.53,4.37,4.37,0,0,1,.83,1.26,5,5,0,0,1,.32,1c.08.4.09.62.13.9l.1.8.18,1.58c.24,2.08.4,4.09.45,6a33.43,33.43,0,0,1-1,9.88,20,20,0,0,1-2.61,5.91C299.5,183.86,298.88,184.4,298.77,184.32Z" />
        <path class="cls-10"
            d="M191.88,117.4c.23.38-2,1.95-4.62,5.49-1.3,1.75-2.68,4-4.22,6.52a42.35,42.35,0,0,0-4.3,8.29c-1.11,3.16-2.18,6.32-3.2,9.1a13.21,13.21,0,0,1-2.13,4.13c-.49.58-1,1-1.28,1.39a6.38,6.38,0,0,0-.8,1.24,14.77,14.77,0,0,0-1,4.83c-.11,1.24-.22,2-.43,2s-.48-.65-.73-1.92a14.38,14.38,0,0,1-.25-2.38,9.89,9.89,0,0,1,.48-3.3,7.91,7.91,0,0,1,.92-1.84c.41-.59.86-1.08,1.18-1.54a11.87,11.87,0,0,0,1.46-3.47c.89-2.86,1.84-5.94,3-9.25a27.65,27.65,0,0,1,2.21-4.76c.85-1.46,1.74-2.77,2.58-4a51.24,51.24,0,0,1,4.92-6.39,18.66,18.66,0,0,1,4.27-3.49C191.06,117.39,191.78,117.23,191.88,117.4Z" />
        <path class="cls-10"
            d="M219,96.41c-.1.45-2.39,0-5.87.8a28.5,28.5,0,0,0-5.92,2,70.8,70.8,0,0,0-6.87,3.74c-2.43,1.45-4.81,2.87-7.09,4a5.34,5.34,0,0,0-2.25,1.57,3.65,3.65,0,0,0-.51,2.2,9.92,9.92,0,0,0,1.28,3.76c.47.92.7,1.49.54,1.62s-.69-.18-1.47-.93a9.59,9.59,0,0,1-1.31-1.54,7.14,7.14,0,0,1-1.14-2.62,5.65,5.65,0,0,1,.45-3.73,5.33,5.33,0,0,1,1.43-1.69,13.79,13.79,0,0,1,1.7-1.09c2.11-1.17,4.36-2.61,6.83-4.09a48.46,48.46,0,0,1,7.36-3.72,23.46,23.46,0,0,1,6.69-1.53,13.53,13.53,0,0,1,4.63.44C218.49,95.86,219,96.23,219,96.41Z" />
        <path class="cls-10"
            d="M300.54,155.4c0-.11.48-.35,1.45-.7a16.79,16.79,0,0,0,1.72-.71c.62-.3,1.36-.8,1.36-1.34a29.67,29.67,0,0,0-.85-9.3,64.61,64.61,0,0,0-4.56-12.17c-1-2.2-2.19-4.56-3.36-6.91a78.1,78.1,0,0,0-4.17-7c-1.56-2.37-3.26-4.76-5-7.19s-3.57-4.68-6.09-6c-3.48-2-7.74-2.6-11.78-4.11a19.78,19.78,0,0,1-5.67-3.14,15.69,15.69,0,0,0-2.17-1.57,5.19,5.19,0,0,0-2.19-.59c-1.62-.11-3.57.11-5.34.18l-5.2.28-9.35.45c-1.43.06-2.76.12-4,.26a29.68,29.68,0,0,0-3.47.65,26.78,26.78,0,0,1-5.89.88c-3.29,0-5-.55-5-.71s1.81-.06,4.91-.46a30,30,0,0,0,5.54-1.33A28.69,28.69,0,0,1,235,93.9c1.32-.24,2.71-.37,4.13-.5l9.33-.82,5.19-.42,2.72-.22a22.13,22.13,0,0,1,3-.09,8,8,0,0,1,3.31.86,16.33,16.33,0,0,1,2.63,1.81,17.18,17.18,0,0,0,4.92,2.63c1.84.67,3.84,1.18,5.92,1.78a29.39,29.39,0,0,1,6.32,2.47,16.62,16.62,0,0,1,4,3.16,34.4,34.4,0,0,1,3,3.73c1.78,2.47,3.49,4.92,5.05,7.37a75.8,75.8,0,0,1,4.2,7.39c1.17,2.48,2.22,4.8,3.22,7.09a60.25,60.25,0,0,1,4.2,12.8,27.76,27.76,0,0,1,.19,9.9,2.34,2.34,0,0,1-1,1.48,5,5,0,0,1-1.22.58,11.92,11.92,0,0,1-1.93.45C301.12,155.5,300.57,155.51,300.54,155.4Z" />
        <path class="cls-10"
            d="M139.89,287.51c-.66-.51,5.76-9.7,14.34-20.52,2.14-2.71,4.21-5.25,6.15-7.54,1-1.14,1.9-2.22,2.76-3.24a12.71,12.71,0,0,1,3-2.67,8,8,0,0,1,5.74-.95c1.34.33,1.93.84,1.85,1s-.78.1-2,.15a8.11,8.11,0,0,0-4.46,1.56,12.1,12.1,0,0,0-2.26,2.48l-2.54,3.38c-1.8,2.38-3.81,5-6,7.69C148,279.67,140.54,288,139.89,287.51Z" />
        <path class="cls-10"
            d="M230.34,368.23c-.1.22-2-.62-5.62-1.61-1.8-.5-4-1-6.63-1.58s-5.61-1.08-8.93-1.8c-1.66-.36-3.39-.78-5.21-1.28a15.29,15.29,0,0,1-2.84-1.07,8.63,8.63,0,0,1-2.66-2.07,16.81,16.81,0,0,1-2.94-5.91q-1-3-2-6.2l-1-3.21a2.12,2.12,0,0,0-.38-.79,1.4,1.4,0,0,0-.71-.06,40.62,40.62,0,0,0-6.75,1.27,92.43,92.43,0,0,1-15,2.72,90,90,0,0,1-9.93.38c-1.63,0-3.24-.1-4.82-.22-.8-.05-1.59-.14-2.37-.21l-3.26-.36c-1.24-4.13-2.45-8.13-3.6-12-1-3.55-2.08-6.89-3-10.18a41.83,41.83,0,0,1-1-4.9,30.71,30.71,0,0,1-.29-4.7c0-1.49,0-2.88,0-4.2a28.89,28.89,0,0,0-.38-3.72c-.42-2.37-1-4.53-1.32-6.46a24.78,24.78,0,0,1-.53-5c0-2.81.77-4.21.89-4.16s-.17,1.49.1,4.12a31.39,31.39,0,0,0,.94,4.74c.49,1.85,1.16,4,1.73,6.42a28,28,0,0,1,.6,4c.1,1.39.13,2.82.18,4.26a31.51,31.51,0,0,0,.43,4.39,40.59,40.59,0,0,0,1.09,4.6c1.93,6.08,4.07,12.87,6.37,20.13h0l.17,0,1.13.11c.76.06,1.52.14,2.29.18,1.54.11,3.09.16,4.67.18a89.18,89.18,0,0,0,9.6-.39,94.57,94.57,0,0,0,14.56-2.58,41.73,41.73,0,0,1,7.3-1.28,5.07,5.07,0,0,1,1.2.06,3.24,3.24,0,0,1,1.41.62,4.28,4.28,0,0,1,1.31,2.16c.33,1.1.66,2.18,1,3.25q1,3.19,1.9,6.23a14.85,14.85,0,0,0,2.33,5.1,8.43,8.43,0,0,0,4.28,2.54c1.71.53,3.4,1,5,1.43,3.24.83,6.22,1.52,8.83,2.23a66.44,66.44,0,0,1,6.6,2.1C228.66,366.87,230.42,368.08,230.34,368.23Z" />
        <path class="cls-10"
            d="M228.47,367.3c-.36.22-1-.19-1.82-.95s-1.72-1.84-2.78-2.81c-.51-.47-1.14-1-1.71-1.58a5.18,5.18,0,0,1-1.24-2,2.64,2.64,0,0,1,0-1.7c.16-.39.4-.54.6-.51.41.1.67.67,1.29,1.22a8.68,8.68,0,0,0,1.2.94,18,18,0,0,1,1.9,1.44,9.55,9.55,0,0,1,2.54,3.89C228.81,366.32,228.82,367.09,228.47,367.3Z" />
        <path class="cls-10"
            d="M199.06,356.4c-.13-.16-.08-.46.1-.85a10.71,10.71,0,0,0,.61-1.39,7.59,7.59,0,0,0,.07-2c0-.89-.12-1.87-.25-2.9-.26-2.07-.65-4-.85-5.41s-.2-2.42.19-2.57,1.08.55,1.82,1.89a16.58,16.58,0,0,1,1.82,5.72,14.29,14.29,0,0,1,0,3.39,5.94,5.94,0,0,1-1,3,3.6,3.6,0,0,1-1.68,1.21C199.49,356.57,199.2,356.56,199.06,356.4Z" />
        <path class="cls-10"
            d="M192.46,340.55c-.39.12-1.23-1.29-2.25-3.67-.51-1.19-1.07-2.63-1.65-4.24s-1.14-3.41-1.81-5.12a39.43,39.43,0,0,0-2.38-4.73,24.47,24.47,0,0,1-2-4.27,8.33,8.33,0,0,1-.46-3.26c.08-.79.29-1.2.49-1.2.45,0,.69,1.54,1.92,3.62.6,1.05,1.42,2.26,2.38,3.67a26.26,26.26,0,0,1,2.81,5.06,49.68,49.68,0,0,1,1.66,5.42c.43,1.65.78,3.15,1,4.42C192.74,338.79,192.86,340.43,192.46,340.55Z" />
        <path class="cls-10"
            d="M277.21,333.46c0,.19-.87.57-2.6.76a16.08,16.08,0,0,1-3.2,0,20.53,20.53,0,0,1-4.13-.85,11.82,11.82,0,0,0-4.38-.7c-.16,0-.17.05-.21.12l-.4,1a25.1,25.1,0,0,0-.84,2.62,22.69,22.69,0,0,0-.55,2.82c-.06.49-.11,1-.14,1.48,0,.24,0,.52-.08.9a3.32,3.32,0,0,1-.43,1.29,4.38,4.38,0,0,1-.76,1l-.63.59c-.42.38-.84.77-1.3,1.15a14.93,14.93,0,0,1-3.12,2.1,10,10,0,0,1-1.87.69c-.62.16-1.19.27-1.72.39a8.66,8.66,0,0,0-1.39.38,5.85,5.85,0,0,0-1.19.61,15.19,15.19,0,0,1-3.05,1.63c-1.08.4-2.11.67-3.06.92a61.77,61.77,0,0,0-9.75,3.49c-1.34.61-2.55,1.2-3.6,1.75a25.73,25.73,0,0,0-2.59,1.45c-1.32.86-1.69,1.7-1.91,1.64s-.13-.3,0-.77a4.71,4.71,0,0,1,1.14-1.76,16.78,16.78,0,0,1,2.49-2,39.47,39.47,0,0,1,3.5-2.2,49.41,49.41,0,0,1,9.94-4.25c1-.3,1.91-.58,2.77-.94a12.29,12.29,0,0,0,2.53-1.44,9.14,9.14,0,0,1,1.71-.91,13.26,13.26,0,0,1,1.81-.52,11.74,11.74,0,0,0,2.92-.86,12.48,12.48,0,0,0,2.52-1.69c.41-.34.81-.69,1.21-1.06a5.83,5.83,0,0,0,.86-.82,2.55,2.55,0,0,0,.14-.94c.05-.56.12-1.11.21-1.66a24.25,24.25,0,0,1,.72-3.16,22.83,22.83,0,0,1,1.07-2.88l.31-.68.16-.33a3.8,3.8,0,0,1,.31-.53,2.31,2.31,0,0,1,.93-.8,3.08,3.08,0,0,1,1.15-.24,13,13,0,0,1,5.23,1.17,23.28,23.28,0,0,0,6.65,1.69C276.24,333.23,277.18,333.24,277.21,333.46Z" />
        <path class="cls-10"
            d="M277.83,332.83c-.08-.1.13-.43.59-.94l.2.7a1.52,1.52,0,0,1-1-.33,2.85,2.85,0,0,1-.73-.91,16.89,16.89,0,0,1-.85-2.37c-.55-1.74-1.19-3.89-1.92-6.37l-5.22-17.9-6.17-20.6c-.38-1.31-.73-2.49-1-3.53a9.5,9.5,0,0,0-1.06-2.35c-.77-1.14-1.65-1.29-1.61-1.53,0-.09.24-.2.7-.15a3.34,3.34,0,0,1,1.78.9,8.24,8.24,0,0,1,1.74,2.49c.51,1.07.94,2.18,1.48,3.48,2.08,5.13,4.65,12.34,7,20.44,2,6.78,3.58,13.11,4.65,18.17.54,2.54.95,4.76,1.24,6.57.16.9.23,1.74.37,2.27s.37.84.64.94l.9.34-.7.36C278.28,332.82,277.91,332.94,277.83,332.83Z" />
        <path class="cls-10"
            d="M250.62,346.4c-.77.26-2.94-3.77-4.78-9.15-.22-.7-.43-1.37-.62-2a14.85,14.85,0,0,1-.39-2,15.51,15.51,0,0,1-.08-3.43c.2-1.94.73-3.06,1.13-3s.65,1.19,1,2.93c.18.87.39,1.89.68,3,.15.56.29,1.13.5,1.73s.44,1.23.65,1.88C250.49,341.57,251.42,346.14,250.62,346.4Z" />
        <path class="cls-10"
            d="M257.25,342.94c-.79.25-3-4.59-5-10.81-.5-1.56-.93-3.05-1.29-4.43a21,21,0,0,1-.7-3.86c-.16-2.34.54-3.73.93-3.63s.51,1.36,1.15,3.25c.31,1,.75,2.09,1.25,3.4s1,2.8,1.52,4.35C257.07,337.44,258,342.69,257.25,342.94Z" />
        <path class="cls-10"
            d="M368.74,383.74c-.18.09-1.31-1.69-3.2-5l-7.91-14c-3.33-5.91-7.31-12.94-11.82-20.69L338.69,332l-3.83-6.38a61.94,61.94,0,0,0-4.07-6.27,17.74,17.74,0,0,0-5.38-4.59c-2.1-1.22-4.35-2.39-6.48-3.54-4.29-2.28-8.47-4.37-12.55-6.09s-8.08-3-11.88-4.31A94.69,94.69,0,0,1,284,296.71a49.05,49.05,0,0,1-4.35-2.36c-1.33-.83-2.52-1.69-3.61-2.49a40.14,40.14,0,0,0-5.67-3.73c-3.31-1.67-5.5-1.27-5.5-1.56,0-.07.5-.29,1.54-.34a11,11,0,0,1,4.43.83,35.13,35.13,0,0,1,6.16,3.42c1.13.73,2.32,1.5,3.62,2.22a47,47,0,0,0,4.26,2.08,103.06,103.06,0,0,0,10.36,3.62c3.79,1.18,7.94,2.39,12.17,4.12s8.51,3.79,12.86,6.05c2.18,1.16,4.35,2.26,6.63,3.57a24.48,24.48,0,0,1,3.33,2.3,19.43,19.43,0,0,1,2.88,3,61.85,61.85,0,0,1,4.28,6.59q1.92,3.27,3.8,6.43c2.47,4.22,4.8,8.32,7,12.24,4.39,7.85,8.18,15,11.28,21.06s5.49,11,7.07,14.46S368.92,383.65,368.74,383.74Z" />
        <path class="cls-10"
            d="M153.93,267.62c.21.8-2.9,2.32-7,3.4s-7.5,1.31-7.72.51,2.89-2.32,7-3.41S153.73,266.81,153.93,267.62Z" />
        <ellipse class="cls-10" cx="320.55" cy="378.08" rx="1.5" ry="4.95" />
        <path class="cls-10"
            d="M316.32,356.23c-.43.1-1.53-3.3-3.68-8.59A113.84,113.84,0,0,0,302.41,328,38,38,0,0,0,298.8,323c-1.2-1.26-3.06-2.24-4.58-3.75a30.21,30.21,0,0,1-3.55-4.38L288,311c-3.25-4.78-5.09-7.86-4.75-8.1s2.77,2.38,6.44,6.83l3,3.66a32.08,32.08,0,0,0,3.45,3.86,20,20,0,0,0,2.18,1.66,17.88,17.88,0,0,1,2.59,2,35.59,35.59,0,0,1,4,5.37,80.74,80.74,0,0,1,9.72,20.62C316.32,352.53,316.7,356.14,316.32,356.23Z" />
        <path class="cls-10"
            d="M234.32,382.37c-.41-.09-.63-.82-1.1-1.85-.25-.54-.54-1.18-.85-1.89s-.66-1.63-1-2.54c-1.2-3.65-1.54-6.82-.76-7.08s2.4,2.49,3.61,6.14c.3.92.55,1.8.74,2.62a9.88,9.88,0,0,1,.3,2.38C235.3,381.62,234.72,382.46,234.32,382.37Z" />
        <path class="cls-10"
            d="M213,383.28c-.34.21-1.21-.43-1.94-1.9a13.7,13.7,0,0,1-1.16-6,38.46,38.46,0,0,1,.55-5.75c.25-1.43.49-2.35.91-2.41s.92.84,1.21,2.37a29.87,29.87,0,0,1,.33,5.81,51.28,51.28,0,0,0,.19,5.4C213.22,382.14,213.37,383.07,213,383.28Z" />
        <path class="cls-10"
            d="M224.23,370.92c.14-.17.5-.12,1.17-.32a5.89,5.89,0,0,1,1.53-.26,2.64,2.64,0,0,1,1.26.33,2.91,2.91,0,0,1,1.06,1.06,5.34,5.34,0,0,1,.64,2.8,6.12,6.12,0,0,1,0,.74l-.08.69a11.14,11.14,0,0,1-.31,1.5,6.36,6.36,0,0,1-1.9,3.12,5,5,0,0,1-1.88,1,4.29,4.29,0,0,1-2.33,0,15.13,15.13,0,0,1-2.25-.88l-1-.44-.28-.13a3.75,3.75,0,0,1-.44-.24,2.43,2.43,0,0,1-.72-.67,2.63,2.63,0,0,1-.43-1.07,3.89,3.89,0,0,1,0-.52l0-.32c0-.42,0-.83,0-1.24a14.7,14.7,0,0,1,.26-2.28,6.79,6.79,0,0,1,.71-2.18,3.62,3.62,0,0,1,1.63-1.48,3.38,3.38,0,0,1,2.83-.06c.59.31.75.66.67.79s-.42.12-.89.17a3.15,3.15,0,0,0-1.69.67,1.93,1.93,0,0,0-.59.87,5.32,5.32,0,0,0-.21,1.52,18.78,18.78,0,0,0,0,2c0,.35,0,.7.08,1.06l0,.27c0,.1,0,0,0,.06l0,0h0l.2.08,1,.4a16.38,16.38,0,0,0,1.8.7,1.55,1.55,0,0,0,.8,0,2.38,2.38,0,0,0,.8-.42,3.89,3.89,0,0,0,1.16-1.73,9.91,9.91,0,0,0,.35-1.13l.14-.59c0-.17.07-.34.09-.51a3.94,3.94,0,0,0,0-1.68.94.94,0,0,0-.63-.69c-.38-.12-.89-.14-1.32-.23a2.07,2.07,0,0,1-1-.43C224.21,371.17,224.18,371,224.23,370.92Z" />
    </g>
</svg>